<svg
	xmlns="http://www.w3.org/2000/svg"
	xmlns:xlink="http://www.w3.org/1999/xlink">

	<symbol
		xmlns="http://www.w3.org/2000/svg"
		viewBox="0 0 1024 1024"
		id="alerts">

		<title></title>

		<path
			d="M505.173 1024c-95.573 0-170.667-75.093-170.667-170.667l85.333-3.413v3.413c0 47.787 37.547 85.333 85.333 85.333s85.333-37.547 85.333-85.333l85.333-3.413c0 98.987-75.093 174.080-170.667 174.080z">
		</path>
		<path
			d="M505.173 894.293c-296.96 0-471.040-61.44-471.040-170.667 0-51.2 30.72-85.333 61.44-119.467 34.133-37.547 64.853-71.68 64.853-136.533v-126.293c0-191.147 150.187-341.333 341.333-341.333s341.333 150.187 341.333 341.333v129.707c0 64.853 30.72 98.987 64.853 136.533 30.72 34.133 61.44 68.267 61.44 119.467 3.413 105.813-170.667 167.253-464.213 167.253zM505.173 85.333c-143.36 0-256 112.64-256 256v129.707c0 95.573-51.2 153.6-88.747 194.56-27.307 23.893-40.96 40.96-40.96 58.027 0 23.893 112.64 85.333 382.293 85.333 273.067 3.413 385.707-58.027 385.707-85.333 0-17.067-13.653-34.133-40.96-61.44-37.547-40.96-88.747-95.573-88.747-194.56v-126.293c0-143.36-109.227-256-252.587-256z">
		</path>
	</symbol>


	<use xlink:href="#alerts"></use>
</svg>



